<mxfile host="app.diagrams.net" modified="2020-10-16T07:39:01.107Z" agent="5.0 (Windows NT 10.0; Win64; x64) AppleWebKit/537.36 (KHTML, like Gecko) Chrome/76.0.3809.100 Safari/537.36" etag="wfNx0jBG4yps6UT_RxdV" version="13.8.0" type="github">
  <diagram id="6R9u10nnCOVRpZWxE0k7" name="Page-1">
    <mxGraphModel dx="3101" dy="1891" grid="1" gridSize="10" guides="1" tooltips="1" connect="1" arrows="1" fold="1" page="1" pageScale="1" pageWidth="827" pageHeight="1169" math="0" shadow="0">
      <root>
        <mxCell id="0" />
        <mxCell id="1" parent="0" />
        <mxCell id="Jg7pOeSKla7BClUJi_HH-29" style="edgeStyle=none;rounded=0;orthogonalLoop=1;jettySize=auto;html=1;exitX=0.5;exitY=1;exitDx=0;exitDy=0;entryX=0;entryY=0;entryDx=0;entryDy=0;endArrow=none;endFill=0;" edge="1" parent="1" source="Jg7pOeSKla7BClUJi_HH-1" target="Jg7pOeSKla7BClUJi_HH-28">
          <mxGeometry relative="1" as="geometry" />
        </mxCell>
        <mxCell id="Jg7pOeSKla7BClUJi_HH-31" value="N" style="edgeLabel;html=1;align=center;verticalAlign=middle;resizable=0;points=[];" vertex="1" connectable="0" parent="Jg7pOeSKla7BClUJi_HH-29">
          <mxGeometry x="-0.5373" y="-1" relative="1" as="geometry">
            <mxPoint x="-12.09" y="6.72" as="offset" />
          </mxGeometry>
        </mxCell>
        <mxCell id="Jg7pOeSKla7BClUJi_HH-1" value="Thuoc" style="rounded=1;arcSize=10;whiteSpace=wrap;html=1;align=center;" vertex="1" parent="1">
          <mxGeometry x="364" y="350" width="100" height="40" as="geometry" />
        </mxCell>
        <mxCell id="Jg7pOeSKla7BClUJi_HH-14" style="edgeStyle=none;rounded=0;orthogonalLoop=1;jettySize=auto;html=1;exitX=1;exitY=0.5;exitDx=0;exitDy=0;entryX=0;entryY=0.5;entryDx=0;entryDy=0;endArrow=none;endFill=0;" edge="1" parent="1" source="Jg7pOeSKla7BClUJi_HH-2" target="Jg7pOeSKla7BClUJi_HH-1">
          <mxGeometry relative="1" as="geometry" />
        </mxCell>
        <mxCell id="Jg7pOeSKla7BClUJi_HH-2" value="ThuocId" style="ellipse;whiteSpace=wrap;html=1;align=center;fontStyle=4;" vertex="1" parent="1">
          <mxGeometry x="110" y="310" width="100" height="40" as="geometry" />
        </mxCell>
        <mxCell id="Jg7pOeSKla7BClUJi_HH-15" style="edgeStyle=none;rounded=0;orthogonalLoop=1;jettySize=auto;html=1;exitX=1;exitY=0.5;exitDx=0;exitDy=0;endArrow=none;endFill=0;" edge="1" parent="1" source="Jg7pOeSKla7BClUJi_HH-3">
          <mxGeometry relative="1" as="geometry">
            <mxPoint x="360" y="370" as="targetPoint" />
          </mxGeometry>
        </mxCell>
        <mxCell id="Jg7pOeSKla7BClUJi_HH-3" value="TenThuoc" style="ellipse;whiteSpace=wrap;html=1;align=center;" vertex="1" parent="1">
          <mxGeometry x="110" y="360" width="100" height="40" as="geometry" />
        </mxCell>
        <mxCell id="Jg7pOeSKla7BClUJi_HH-13" style="rounded=0;orthogonalLoop=1;jettySize=auto;html=1;exitX=1;exitY=0.5;exitDx=0;exitDy=0;entryX=0;entryY=0.25;entryDx=0;entryDy=0;endArrow=none;endFill=0;" edge="1" parent="1" source="Jg7pOeSKla7BClUJi_HH-4" target="Jg7pOeSKla7BClUJi_HH-1">
          <mxGeometry relative="1" as="geometry" />
        </mxCell>
        <mxCell id="Jg7pOeSKla7BClUJi_HH-4" value="MoTa" style="ellipse;whiteSpace=wrap;html=1;align=center;" vertex="1" parent="1">
          <mxGeometry x="110" y="250" width="100" height="40" as="geometry" />
        </mxCell>
        <mxCell id="Jg7pOeSKla7BClUJi_HH-18" style="edgeStyle=none;rounded=0;orthogonalLoop=1;jettySize=auto;html=1;exitX=0.5;exitY=1;exitDx=0;exitDy=0;entryX=0;entryY=0;entryDx=0;entryDy=0;endArrow=none;endFill=0;" edge="1" parent="1" source="Jg7pOeSKla7BClUJi_HH-5" target="Jg7pOeSKla7BClUJi_HH-1">
          <mxGeometry relative="1" as="geometry" />
        </mxCell>
        <mxCell id="Jg7pOeSKla7BClUJi_HH-5" value="HanSuDung" style="ellipse;whiteSpace=wrap;html=1;align=center;" vertex="1" parent="1">
          <mxGeometry x="220" y="220" width="100" height="40" as="geometry" />
        </mxCell>
        <mxCell id="Jg7pOeSKla7BClUJi_HH-19" style="edgeStyle=none;rounded=0;orthogonalLoop=1;jettySize=auto;html=1;exitX=0.5;exitY=1;exitDx=0;exitDy=0;entryX=0.25;entryY=0;entryDx=0;entryDy=0;endArrow=none;endFill=0;" edge="1" parent="1" source="Jg7pOeSKla7BClUJi_HH-6" target="Jg7pOeSKla7BClUJi_HH-1">
          <mxGeometry relative="1" as="geometry" />
        </mxCell>
        <mxCell id="Jg7pOeSKla7BClUJi_HH-6" value="DonViTinh" style="ellipse;whiteSpace=wrap;html=1;align=center;" vertex="1" parent="1">
          <mxGeometry x="295" y="170" width="100" height="40" as="geometry" />
        </mxCell>
        <mxCell id="Jg7pOeSKla7BClUJi_HH-20" style="edgeStyle=none;rounded=0;orthogonalLoop=1;jettySize=auto;html=1;exitX=0.5;exitY=1;exitDx=0;exitDy=0;entryX=0.5;entryY=0;entryDx=0;entryDy=0;endArrow=none;endFill=0;" edge="1" parent="1" source="Jg7pOeSKla7BClUJi_HH-7" target="Jg7pOeSKla7BClUJi_HH-1">
          <mxGeometry relative="1" as="geometry" />
        </mxCell>
        <mxCell id="Jg7pOeSKla7BClUJi_HH-7" value="Gia" style="ellipse;whiteSpace=wrap;html=1;align=center;" vertex="1" parent="1">
          <mxGeometry x="580" y="270" width="100" height="40" as="geometry" />
        </mxCell>
        <mxCell id="Jg7pOeSKla7BClUJi_HH-17" style="edgeStyle=none;rounded=0;orthogonalLoop=1;jettySize=auto;html=1;exitX=1;exitY=0.5;exitDx=0;exitDy=0;entryX=0;entryY=0.75;entryDx=0;entryDy=0;endArrow=none;endFill=0;" edge="1" parent="1" source="Jg7pOeSKla7BClUJi_HH-8" target="Jg7pOeSKla7BClUJi_HH-1">
          <mxGeometry relative="1" as="geometry" />
        </mxCell>
        <mxCell id="Jg7pOeSKla7BClUJi_HH-8" value="DangBaoChe" style="ellipse;whiteSpace=wrap;html=1;align=center;" vertex="1" parent="1">
          <mxGeometry x="110" y="460" width="100" height="40" as="geometry" />
        </mxCell>
        <mxCell id="Jg7pOeSKla7BClUJi_HH-16" style="edgeStyle=none;rounded=0;orthogonalLoop=1;jettySize=auto;html=1;exitX=1;exitY=0.5;exitDx=0;exitDy=0;endArrow=none;endFill=0;entryX=0;entryY=0.75;entryDx=0;entryDy=0;" edge="1" parent="1" source="Jg7pOeSKla7BClUJi_HH-9" target="Jg7pOeSKla7BClUJi_HH-1">
          <mxGeometry relative="1" as="geometry">
            <mxPoint x="360" y="370" as="targetPoint" />
          </mxGeometry>
        </mxCell>
        <mxCell id="Jg7pOeSKla7BClUJi_HH-9" value="QuyCachDongGoi" style="ellipse;whiteSpace=wrap;html=1;align=center;" vertex="1" parent="1">
          <mxGeometry x="100" y="410" width="120" height="40" as="geometry" />
        </mxCell>
        <mxCell id="Jg7pOeSKla7BClUJi_HH-21" style="edgeStyle=none;rounded=0;orthogonalLoop=1;jettySize=auto;html=1;exitX=0;exitY=1;exitDx=0;exitDy=0;entryX=0.75;entryY=0;entryDx=0;entryDy=0;endArrow=none;endFill=0;" edge="1" parent="1" source="Jg7pOeSKla7BClUJi_HH-10" target="Jg7pOeSKla7BClUJi_HH-1">
          <mxGeometry relative="1" as="geometry" />
        </mxCell>
        <mxCell id="Jg7pOeSKla7BClUJi_HH-10" value="TonKho" style="ellipse;whiteSpace=wrap;html=1;align=center;" vertex="1" parent="1">
          <mxGeometry x="580" y="330" width="100" height="40" as="geometry" />
        </mxCell>
        <mxCell id="Jg7pOeSKla7BClUJi_HH-22" style="edgeStyle=none;rounded=0;orthogonalLoop=1;jettySize=auto;html=1;exitX=0;exitY=1;exitDx=0;exitDy=0;entryX=1;entryY=0.5;entryDx=0;entryDy=0;endArrow=none;endFill=0;" edge="1" parent="1" source="Jg7pOeSKla7BClUJi_HH-11" target="Jg7pOeSKla7BClUJi_HH-1">
          <mxGeometry relative="1" as="geometry" />
        </mxCell>
        <mxCell id="Jg7pOeSKla7BClUJi_HH-11" value="Thue" style="ellipse;whiteSpace=wrap;html=1;align=center;" vertex="1" parent="1">
          <mxGeometry x="570" y="400" width="100" height="40" as="geometry" />
        </mxCell>
        <mxCell id="Jg7pOeSKla7BClUJi_HH-33" style="edgeStyle=none;rounded=0;orthogonalLoop=1;jettySize=auto;html=1;entryX=0;entryY=0.5;entryDx=0;entryDy=0;endArrow=none;endFill=0;" edge="1" parent="1" source="Jg7pOeSKla7BClUJi_HH-23" target="Jg7pOeSKla7BClUJi_HH-24">
          <mxGeometry relative="1" as="geometry" />
        </mxCell>
        <mxCell id="Jg7pOeSKla7BClUJi_HH-23" value="LoaiThuoc" style="rounded=1;arcSize=10;whiteSpace=wrap;html=1;align=center;" vertex="1" parent="1">
          <mxGeometry x="800" y="870" width="100" height="40" as="geometry" />
        </mxCell>
        <mxCell id="Jg7pOeSKla7BClUJi_HH-24" value="&lt;u&gt;LoaiThuocId&lt;/u&gt;" style="ellipse;whiteSpace=wrap;html=1;align=center;" vertex="1" parent="1">
          <mxGeometry x="970" y="890" width="100" height="40" as="geometry" />
        </mxCell>
        <mxCell id="Jg7pOeSKla7BClUJi_HH-35" style="edgeStyle=none;rounded=0;orthogonalLoop=1;jettySize=auto;html=1;exitX=0.5;exitY=0;exitDx=0;exitDy=0;entryX=0.5;entryY=1;entryDx=0;entryDy=0;endArrow=none;endFill=0;" edge="1" parent="1" source="Jg7pOeSKla7BClUJi_HH-25" target="Jg7pOeSKla7BClUJi_HH-23">
          <mxGeometry relative="1" as="geometry" />
        </mxCell>
        <mxCell id="Jg7pOeSKla7BClUJi_HH-25" value="TenLoai" style="ellipse;whiteSpace=wrap;html=1;align=center;" vertex="1" parent="1">
          <mxGeometry x="810" y="990" width="100" height="40" as="geometry" />
        </mxCell>
        <mxCell id="Jg7pOeSKla7BClUJi_HH-34" style="edgeStyle=none;rounded=0;orthogonalLoop=1;jettySize=auto;html=1;exitX=0;exitY=0;exitDx=0;exitDy=0;entryX=0.75;entryY=1;entryDx=0;entryDy=0;endArrow=none;endFill=0;" edge="1" parent="1" source="Jg7pOeSKla7BClUJi_HH-26" target="Jg7pOeSKla7BClUJi_HH-23">
          <mxGeometry relative="1" as="geometry" />
        </mxCell>
        <mxCell id="Jg7pOeSKla7BClUJi_HH-26" value="MoTa" style="ellipse;whiteSpace=wrap;html=1;align=center;" vertex="1" parent="1">
          <mxGeometry x="910" y="950" width="100" height="40" as="geometry" />
        </mxCell>
        <mxCell id="Jg7pOeSKla7BClUJi_HH-30" style="edgeStyle=none;rounded=0;orthogonalLoop=1;jettySize=auto;html=1;exitX=1;exitY=1;exitDx=0;exitDy=0;entryX=0.25;entryY=0;entryDx=0;entryDy=0;endArrow=none;endFill=0;" edge="1" parent="1" source="Jg7pOeSKla7BClUJi_HH-28" target="Jg7pOeSKla7BClUJi_HH-23">
          <mxGeometry relative="1" as="geometry" />
        </mxCell>
        <mxCell id="Jg7pOeSKla7BClUJi_HH-32" value="1" style="edgeLabel;html=1;align=center;verticalAlign=middle;resizable=0;points=[];" vertex="1" connectable="0" parent="Jg7pOeSKla7BClUJi_HH-30">
          <mxGeometry x="0.5855" relative="1" as="geometry">
            <mxPoint x="29.91" y="24.449999999999996" as="offset" />
          </mxGeometry>
        </mxCell>
        <mxCell id="Jg7pOeSKla7BClUJi_HH-28" value="Thuộc" style="shape=rhombus;perimeter=rhombusPerimeter;whiteSpace=wrap;html=1;align=center;" vertex="1" parent="1">
          <mxGeometry x="600" y="610" width="120" height="60" as="geometry" />
        </mxCell>
        <mxCell id="Jg7pOeSKla7BClUJi_HH-63" style="edgeStyle=none;rounded=0;orthogonalLoop=1;jettySize=auto;html=1;exitX=0;exitY=0;exitDx=0;exitDy=0;entryX=1;entryY=1;entryDx=0;entryDy=0;endArrow=none;endFill=0;" edge="1" parent="1" source="Jg7pOeSKla7BClUJi_HH-36" target="Jg7pOeSKla7BClUJi_HH-62">
          <mxGeometry relative="1" as="geometry" />
        </mxCell>
        <mxCell id="Jg7pOeSKla7BClUJi_HH-66" value="1" style="edgeLabel;html=1;align=center;verticalAlign=middle;resizable=0;points=[];" vertex="1" connectable="0" parent="Jg7pOeSKla7BClUJi_HH-63">
          <mxGeometry x="-0.7497" y="-1" relative="1" as="geometry">
            <mxPoint x="8.67" y="-14.21" as="offset" />
          </mxGeometry>
        </mxCell>
        <mxCell id="Jg7pOeSKla7BClUJi_HH-36" value="NhaCungCap" style="rounded=1;arcSize=10;whiteSpace=wrap;html=1;align=center;" vertex="1" parent="1">
          <mxGeometry x="225" y="855" width="100" height="40" as="geometry" />
        </mxCell>
        <mxCell id="Jg7pOeSKla7BClUJi_HH-47" style="edgeStyle=none;rounded=0;orthogonalLoop=1;jettySize=auto;html=1;exitX=0.5;exitY=0;exitDx=0;exitDy=0;entryX=0;entryY=0.75;entryDx=0;entryDy=0;endArrow=none;endFill=0;" edge="1" parent="1" source="Jg7pOeSKla7BClUJi_HH-37" target="Jg7pOeSKla7BClUJi_HH-36">
          <mxGeometry relative="1" as="geometry" />
        </mxCell>
        <mxCell id="Jg7pOeSKla7BClUJi_HH-37" value="NhaCungCapID" style="ellipse;whiteSpace=wrap;html=1;align=center;fontStyle=4;" vertex="1" parent="1">
          <mxGeometry x="65" y="920" width="100" height="40" as="geometry" />
        </mxCell>
        <mxCell id="Jg7pOeSKla7BClUJi_HH-48" style="edgeStyle=none;rounded=0;orthogonalLoop=1;jettySize=auto;html=1;exitX=0.5;exitY=0;exitDx=0;exitDy=0;entryX=0.5;entryY=1;entryDx=0;entryDy=0;endArrow=none;endFill=0;" edge="1" parent="1" source="Jg7pOeSKla7BClUJi_HH-38" target="Jg7pOeSKla7BClUJi_HH-36">
          <mxGeometry relative="1" as="geometry" />
        </mxCell>
        <mxCell id="Jg7pOeSKla7BClUJi_HH-38" value="TenNhaCungCap" style="ellipse;whiteSpace=wrap;html=1;align=center;" vertex="1" parent="1">
          <mxGeometry x="195" y="960" width="100" height="40" as="geometry" />
        </mxCell>
        <mxCell id="Jg7pOeSKla7BClUJi_HH-51" style="edgeStyle=none;rounded=0;orthogonalLoop=1;jettySize=auto;html=1;exitX=0;exitY=0;exitDx=0;exitDy=0;entryX=1;entryY=1;entryDx=0;entryDy=0;endArrow=none;endFill=0;" edge="1" parent="1" source="Jg7pOeSKla7BClUJi_HH-39" target="Jg7pOeSKla7BClUJi_HH-36">
          <mxGeometry relative="1" as="geometry" />
        </mxCell>
        <mxCell id="Jg7pOeSKla7BClUJi_HH-39" value="SoDienThoai" style="ellipse;whiteSpace=wrap;html=1;align=center;" vertex="1" parent="1">
          <mxGeometry x="375" y="950" width="100" height="40" as="geometry" />
        </mxCell>
        <mxCell id="Jg7pOeSKla7BClUJi_HH-49" style="edgeStyle=none;rounded=0;orthogonalLoop=1;jettySize=auto;html=1;exitX=0.5;exitY=0;exitDx=0;exitDy=0;entryX=0.25;entryY=1;entryDx=0;entryDy=0;endArrow=none;endFill=0;" edge="1" parent="1" source="Jg7pOeSKla7BClUJi_HH-40" target="Jg7pOeSKla7BClUJi_HH-36">
          <mxGeometry relative="1" as="geometry" />
        </mxCell>
        <mxCell id="Jg7pOeSKla7BClUJi_HH-40" value="FAX" style="ellipse;whiteSpace=wrap;html=1;align=center;" vertex="1" parent="1">
          <mxGeometry x="95" y="990" width="100" height="40" as="geometry" />
        </mxCell>
        <mxCell id="Jg7pOeSKla7BClUJi_HH-50" style="edgeStyle=none;rounded=0;orthogonalLoop=1;jettySize=auto;html=1;exitX=0.5;exitY=0;exitDx=0;exitDy=0;entryX=0.75;entryY=1;entryDx=0;entryDy=0;endArrow=none;endFill=0;" edge="1" parent="1" source="Jg7pOeSKla7BClUJi_HH-41" target="Jg7pOeSKla7BClUJi_HH-36">
          <mxGeometry relative="1" as="geometry" />
        </mxCell>
        <mxCell id="Jg7pOeSKla7BClUJi_HH-41" value="TrangChu" style="ellipse;whiteSpace=wrap;html=1;align=center;" vertex="1" parent="1">
          <mxGeometry x="295" y="1000" width="100" height="40" as="geometry" />
        </mxCell>
        <mxCell id="Jg7pOeSKla7BClUJi_HH-43" style="edgeStyle=none;rounded=0;orthogonalLoop=1;jettySize=auto;html=1;exitX=0.5;exitY=0;exitDx=0;exitDy=0;entryX=0.25;entryY=1;entryDx=0;entryDy=0;endArrow=none;endFill=0;" edge="1" parent="1" source="Jg7pOeSKla7BClUJi_HH-42" target="Jg7pOeSKla7BClUJi_HH-1">
          <mxGeometry relative="1" as="geometry" />
        </mxCell>
        <mxCell id="Jg7pOeSKla7BClUJi_HH-45" value="N" style="edgeLabel;html=1;align=center;verticalAlign=middle;resizable=0;points=[];" vertex="1" connectable="0" parent="Jg7pOeSKla7BClUJi_HH-43">
          <mxGeometry x="0.4298" y="-1" relative="1" as="geometry">
            <mxPoint x="3.98" y="9.71" as="offset" />
          </mxGeometry>
        </mxCell>
        <mxCell id="Jg7pOeSKla7BClUJi_HH-44" style="edgeStyle=none;rounded=0;orthogonalLoop=1;jettySize=auto;html=1;exitX=0.5;exitY=1;exitDx=0;exitDy=0;entryX=0.5;entryY=0;entryDx=0;entryDy=0;endArrow=none;endFill=0;" edge="1" parent="1" source="Jg7pOeSKla7BClUJi_HH-42" target="Jg7pOeSKla7BClUJi_HH-36">
          <mxGeometry relative="1" as="geometry">
            <mxPoint x="315.0000000000002" y="810" as="sourcePoint" />
          </mxGeometry>
        </mxCell>
        <mxCell id="Jg7pOeSKla7BClUJi_HH-46" value="1" style="edgeLabel;html=1;align=center;verticalAlign=middle;resizable=0;points=[];" vertex="1" connectable="0" parent="Jg7pOeSKla7BClUJi_HH-44">
          <mxGeometry x="0.4645" y="1" relative="1" as="geometry">
            <mxPoint x="11.310000000000002" y="28.68" as="offset" />
          </mxGeometry>
        </mxCell>
        <mxCell id="Jg7pOeSKla7BClUJi_HH-42" value="Thuộc" style="shape=rhombus;perimeter=rhombusPerimeter;whiteSpace=wrap;html=1;align=center;" vertex="1" parent="1">
          <mxGeometry x="244" y="630" width="120" height="60" as="geometry" />
        </mxCell>
        <mxCell id="Jg7pOeSKla7BClUJi_HH-64" style="edgeStyle=none;rounded=0;orthogonalLoop=1;jettySize=auto;html=1;exitX=1;exitY=1;exitDx=0;exitDy=0;entryX=0;entryY=0;entryDx=0;entryDy=0;endArrow=none;endFill=0;" edge="1" parent="1" source="Jg7pOeSKla7BClUJi_HH-53" target="Jg7pOeSKla7BClUJi_HH-62">
          <mxGeometry relative="1" as="geometry" />
        </mxCell>
        <mxCell id="Jg7pOeSKla7BClUJi_HH-65" value="1" style="edgeLabel;html=1;align=center;verticalAlign=middle;resizable=0;points=[];" vertex="1" connectable="0" parent="Jg7pOeSKla7BClUJi_HH-64">
          <mxGeometry x="-0.6928" relative="1" as="geometry">
            <mxPoint y="-13.13" as="offset" />
          </mxGeometry>
        </mxCell>
        <mxCell id="Jg7pOeSKla7BClUJi_HH-85" style="edgeStyle=none;rounded=0;orthogonalLoop=1;jettySize=auto;html=1;exitX=0.75;exitY=0;exitDx=0;exitDy=0;entryX=0.5;entryY=1;entryDx=0;entryDy=0;endArrow=none;endFill=0;" edge="1" parent="1" source="Jg7pOeSKla7BClUJi_HH-53" target="Jg7pOeSKla7BClUJi_HH-83">
          <mxGeometry relative="1" as="geometry" />
        </mxCell>
        <mxCell id="Jg7pOeSKla7BClUJi_HH-87" value="1" style="edgeLabel;html=1;align=center;verticalAlign=middle;resizable=0;points=[];" vertex="1" connectable="0" parent="Jg7pOeSKla7BClUJi_HH-85">
          <mxGeometry x="-0.7082" y="2" relative="1" as="geometry">
            <mxPoint x="9.31" y="-5.85" as="offset" />
          </mxGeometry>
        </mxCell>
        <mxCell id="Jg7pOeSKla7BClUJi_HH-53" value="DiaChi" style="shape=ext;margin=3;double=1;whiteSpace=wrap;html=1;align=center;" vertex="1" parent="1">
          <mxGeometry x="-260" y="620" width="100" height="40" as="geometry" />
        </mxCell>
        <mxCell id="Jg7pOeSKla7BClUJi_HH-58" style="edgeStyle=none;rounded=0;orthogonalLoop=1;jettySize=auto;html=1;exitX=0;exitY=0.5;exitDx=0;exitDy=0;entryX=0.5;entryY=0;entryDx=0;entryDy=0;endArrow=none;endFill=0;" edge="1" parent="1" source="Jg7pOeSKla7BClUJi_HH-54" target="Jg7pOeSKla7BClUJi_HH-53">
          <mxGeometry relative="1" as="geometry" />
        </mxCell>
        <mxCell id="Jg7pOeSKla7BClUJi_HH-54" value="XaPhuong" style="ellipse;whiteSpace=wrap;html=1;align=center;" vertex="1" parent="1">
          <mxGeometry x="-490" y="500" width="100" height="40" as="geometry" />
        </mxCell>
        <mxCell id="Jg7pOeSKla7BClUJi_HH-59" style="edgeStyle=none;rounded=0;orthogonalLoop=1;jettySize=auto;html=1;exitX=0;exitY=0.5;exitDx=0;exitDy=0;entryX=0;entryY=0.25;entryDx=0;entryDy=0;endArrow=none;endFill=0;" edge="1" parent="1" source="Jg7pOeSKla7BClUJi_HH-55" target="Jg7pOeSKla7BClUJi_HH-53">
          <mxGeometry relative="1" as="geometry" />
        </mxCell>
        <mxCell id="Jg7pOeSKla7BClUJi_HH-55" value="QuanHuyen" style="ellipse;whiteSpace=wrap;html=1;align=center;" vertex="1" parent="1">
          <mxGeometry x="-480" y="570" width="100" height="40" as="geometry" />
        </mxCell>
        <mxCell id="Jg7pOeSKla7BClUJi_HH-60" style="edgeStyle=none;rounded=0;orthogonalLoop=1;jettySize=auto;html=1;exitX=0;exitY=0.5;exitDx=0;exitDy=0;endArrow=none;endFill=0;" edge="1" parent="1" source="Jg7pOeSKla7BClUJi_HH-56" target="Jg7pOeSKla7BClUJi_HH-53">
          <mxGeometry relative="1" as="geometry" />
        </mxCell>
        <mxCell id="Jg7pOeSKla7BClUJi_HH-56" value="TinhThanhPho" style="ellipse;whiteSpace=wrap;html=1;align=center;" vertex="1" parent="1">
          <mxGeometry x="-480" y="640" width="100" height="40" as="geometry" />
        </mxCell>
        <mxCell id="Jg7pOeSKla7BClUJi_HH-61" style="edgeStyle=none;rounded=0;orthogonalLoop=1;jettySize=auto;html=1;exitX=0;exitY=0.5;exitDx=0;exitDy=0;entryX=0.5;entryY=1;entryDx=0;entryDy=0;endArrow=none;endFill=0;" edge="1" parent="1" source="Jg7pOeSKla7BClUJi_HH-57" target="Jg7pOeSKla7BClUJi_HH-53">
          <mxGeometry relative="1" as="geometry" />
        </mxCell>
        <mxCell id="Jg7pOeSKla7BClUJi_HH-57" value="ChiTiet" style="ellipse;whiteSpace=wrap;html=1;align=center;" vertex="1" parent="1">
          <mxGeometry x="-510" y="705" width="100" height="40" as="geometry" />
        </mxCell>
        <mxCell id="Jg7pOeSKla7BClUJi_HH-62" value="Đặt Tại" style="shape=rhombus;perimeter=rhombusPerimeter;whiteSpace=wrap;html=1;align=center;" vertex="1" parent="1">
          <mxGeometry x="-60" y="730" width="120" height="60" as="geometry" />
        </mxCell>
        <mxCell id="Jg7pOeSKla7BClUJi_HH-84" style="edgeStyle=none;rounded=0;orthogonalLoop=1;jettySize=auto;html=1;entryX=0.5;entryY=0;entryDx=0;entryDy=0;endArrow=none;endFill=0;" edge="1" parent="1" source="Jg7pOeSKla7BClUJi_HH-67" target="Jg7pOeSKla7BClUJi_HH-83">
          <mxGeometry relative="1" as="geometry" />
        </mxCell>
        <mxCell id="Jg7pOeSKla7BClUJi_HH-86" value="1" style="edgeLabel;html=1;align=center;verticalAlign=middle;resizable=0;points=[];" vertex="1" connectable="0" parent="Jg7pOeSKla7BClUJi_HH-84">
          <mxGeometry x="-0.5542" relative="1" as="geometry">
            <mxPoint x="-14.77" y="7.54" as="offset" />
          </mxGeometry>
        </mxCell>
        <mxCell id="Jg7pOeSKla7BClUJi_HH-137" style="edgeStyle=none;rounded=0;orthogonalLoop=1;jettySize=auto;html=1;exitX=1;exitY=0;exitDx=0;exitDy=0;entryX=0;entryY=1;entryDx=0;entryDy=0;endArrow=none;endFill=0;" edge="1" parent="1" source="Jg7pOeSKla7BClUJi_HH-67" target="Jg7pOeSKla7BClUJi_HH-136">
          <mxGeometry relative="1" as="geometry" />
        </mxCell>
        <mxCell id="Jg7pOeSKla7BClUJi_HH-140" value="1" style="edgeLabel;html=1;align=center;verticalAlign=middle;resizable=0;points=[];" vertex="1" connectable="0" parent="Jg7pOeSKla7BClUJi_HH-137">
          <mxGeometry x="-0.7412" y="-3" relative="1" as="geometry">
            <mxPoint as="offset" />
          </mxGeometry>
        </mxCell>
        <mxCell id="Jg7pOeSKla7BClUJi_HH-153" style="edgeStyle=none;rounded=0;orthogonalLoop=1;jettySize=auto;html=1;exitX=0.25;exitY=1;exitDx=0;exitDy=0;entryX=1;entryY=0;entryDx=0;entryDy=0;endArrow=none;endFill=0;" edge="1" parent="1" source="Jg7pOeSKla7BClUJi_HH-67" target="Jg7pOeSKla7BClUJi_HH-152">
          <mxGeometry relative="1" as="geometry" />
        </mxCell>
        <mxCell id="Jg7pOeSKla7BClUJi_HH-67" value="KhachHang" style="rounded=1;arcSize=10;whiteSpace=wrap;html=1;align=center;" vertex="1" parent="1">
          <mxGeometry x="-390" y="250" width="100" height="40" as="geometry" />
        </mxCell>
        <mxCell id="Jg7pOeSKla7BClUJi_HH-80" style="edgeStyle=none;rounded=0;orthogonalLoop=1;jettySize=auto;html=1;exitX=1;exitY=1;exitDx=0;exitDy=0;entryX=0;entryY=0;entryDx=0;entryDy=0;endArrow=none;endFill=0;" edge="1" parent="1" source="Jg7pOeSKla7BClUJi_HH-68" target="Jg7pOeSKla7BClUJi_HH-67">
          <mxGeometry relative="1" as="geometry" />
        </mxCell>
        <mxCell id="Jg7pOeSKla7BClUJi_HH-68" value="KhachHangId" style="ellipse;whiteSpace=wrap;html=1;align=center;fontStyle=4;" vertex="1" parent="1">
          <mxGeometry x="-510" y="110" width="100" height="40" as="geometry" />
        </mxCell>
        <mxCell id="Jg7pOeSKla7BClUJi_HH-79" style="edgeStyle=none;rounded=0;orthogonalLoop=1;jettySize=auto;html=1;exitX=1;exitY=0.5;exitDx=0;exitDy=0;entryX=0;entryY=0.25;entryDx=0;entryDy=0;endArrow=none;endFill=0;" edge="1" parent="1" source="Jg7pOeSKla7BClUJi_HH-69" target="Jg7pOeSKla7BClUJi_HH-67">
          <mxGeometry relative="1" as="geometry" />
        </mxCell>
        <mxCell id="Jg7pOeSKla7BClUJi_HH-69" value="HoTenDem" style="ellipse;whiteSpace=wrap;html=1;align=center;" vertex="1" parent="1">
          <mxGeometry x="-560" y="180" width="100" height="40" as="geometry" />
        </mxCell>
        <mxCell id="Jg7pOeSKla7BClUJi_HH-78" style="edgeStyle=none;rounded=0;orthogonalLoop=1;jettySize=auto;html=1;exitX=1;exitY=0.5;exitDx=0;exitDy=0;entryX=0;entryY=0.5;entryDx=0;entryDy=0;endArrow=none;endFill=0;" edge="1" parent="1" source="Jg7pOeSKla7BClUJi_HH-70" target="Jg7pOeSKla7BClUJi_HH-67">
          <mxGeometry relative="1" as="geometry" />
        </mxCell>
        <mxCell id="Jg7pOeSKla7BClUJi_HH-70" value="Ten" style="ellipse;whiteSpace=wrap;html=1;align=center;" vertex="1" parent="1">
          <mxGeometry x="-580" y="240" width="100" height="40" as="geometry" />
        </mxCell>
        <mxCell id="Jg7pOeSKla7BClUJi_HH-77" style="edgeStyle=none;rounded=0;orthogonalLoop=1;jettySize=auto;html=1;exitX=1;exitY=0.5;exitDx=0;exitDy=0;entryX=0;entryY=0.75;entryDx=0;entryDy=0;endArrow=none;endFill=0;" edge="1" parent="1" source="Jg7pOeSKla7BClUJi_HH-71" target="Jg7pOeSKla7BClUJi_HH-67">
          <mxGeometry relative="1" as="geometry" />
        </mxCell>
        <mxCell id="Jg7pOeSKla7BClUJi_HH-71" value="SoDienThoai" style="ellipse;whiteSpace=wrap;html=1;align=center;" vertex="1" parent="1">
          <mxGeometry x="-580" y="300" width="100" height="40" as="geometry" />
        </mxCell>
        <mxCell id="Jg7pOeSKla7BClUJi_HH-76" style="edgeStyle=none;rounded=0;orthogonalLoop=1;jettySize=auto;html=1;exitX=1;exitY=0;exitDx=0;exitDy=0;entryX=0;entryY=1;entryDx=0;entryDy=0;endArrow=none;endFill=0;" edge="1" parent="1" source="Jg7pOeSKla7BClUJi_HH-72" target="Jg7pOeSKla7BClUJi_HH-67">
          <mxGeometry relative="1" as="geometry" />
        </mxCell>
        <mxCell id="Jg7pOeSKla7BClUJi_HH-72" value="GioiTinh" style="ellipse;whiteSpace=wrap;html=1;align=center;" vertex="1" parent="1">
          <mxGeometry x="-560" y="360" width="100" height="40" as="geometry" />
        </mxCell>
        <mxCell id="Jg7pOeSKla7BClUJi_HH-82" style="edgeStyle=none;rounded=0;orthogonalLoop=1;jettySize=auto;html=1;exitX=0.5;exitY=1;exitDx=0;exitDy=0;entryX=0.5;entryY=0;entryDx=0;entryDy=0;endArrow=none;endFill=0;" edge="1" parent="1" source="Jg7pOeSKla7BClUJi_HH-73" target="Jg7pOeSKla7BClUJi_HH-67">
          <mxGeometry relative="1" as="geometry" />
        </mxCell>
        <mxCell id="Jg7pOeSKla7BClUJi_HH-73" value="NgaySinh" style="ellipse;whiteSpace=wrap;html=1;align=center;" vertex="1" parent="1">
          <mxGeometry x="-280" y="90" width="100" height="40" as="geometry" />
        </mxCell>
        <mxCell id="Jg7pOeSKla7BClUJi_HH-81" style="edgeStyle=none;rounded=0;orthogonalLoop=1;jettySize=auto;html=1;exitX=0.5;exitY=1;exitDx=0;exitDy=0;entryX=0.25;entryY=0;entryDx=0;entryDy=0;endArrow=none;endFill=0;" edge="1" parent="1" source="Jg7pOeSKla7BClUJi_HH-75" target="Jg7pOeSKla7BClUJi_HH-67">
          <mxGeometry relative="1" as="geometry" />
        </mxCell>
        <mxCell id="Jg7pOeSKla7BClUJi_HH-75" value="DienTichLuy" style="ellipse;whiteSpace=wrap;html=1;align=center;" vertex="1" parent="1">
          <mxGeometry x="-390" y="90" width="100" height="40" as="geometry" />
        </mxCell>
        <mxCell id="Jg7pOeSKla7BClUJi_HH-83" value="Sống tại" style="shape=rhombus;perimeter=rhombusPerimeter;whiteSpace=wrap;html=1;align=center;" vertex="1" parent="1">
          <mxGeometry x="-330" y="390" width="120" height="60" as="geometry" />
        </mxCell>
        <mxCell id="Jg7pOeSKla7BClUJi_HH-102" style="edgeStyle=none;rounded=0;orthogonalLoop=1;jettySize=auto;html=1;exitX=1;exitY=0.5;exitDx=0;exitDy=0;entryX=0;entryY=0.5;entryDx=0;entryDy=0;endArrow=none;endFill=0;" edge="1" parent="1" source="Jg7pOeSKla7BClUJi_HH-89" target="Jg7pOeSKla7BClUJi_HH-101">
          <mxGeometry relative="1" as="geometry" />
        </mxCell>
        <mxCell id="Jg7pOeSKla7BClUJi_HH-105" value="1" style="edgeLabel;html=1;align=center;verticalAlign=middle;resizable=0;points=[];" vertex="1" connectable="0" parent="Jg7pOeSKla7BClUJi_HH-102">
          <mxGeometry x="-0.619" y="1" relative="1" as="geometry">
            <mxPoint x="0.71" y="-10.9" as="offset" />
          </mxGeometry>
        </mxCell>
        <mxCell id="Jg7pOeSKla7BClUJi_HH-132" style="edgeStyle=none;rounded=0;orthogonalLoop=1;jettySize=auto;html=1;exitX=0;exitY=0.5;exitDx=0;exitDy=0;entryX=1;entryY=1;entryDx=0;entryDy=0;endArrow=none;endFill=0;" edge="1" parent="1" source="Jg7pOeSKla7BClUJi_HH-89" target="Jg7pOeSKla7BClUJi_HH-130">
          <mxGeometry relative="1" as="geometry" />
        </mxCell>
        <mxCell id="Jg7pOeSKla7BClUJi_HH-133" value="N" style="edgeLabel;html=1;align=center;verticalAlign=middle;resizable=0;points=[];" vertex="1" connectable="0" parent="Jg7pOeSKla7BClUJi_HH-132">
          <mxGeometry x="-0.7612" relative="1" as="geometry">
            <mxPoint as="offset" />
          </mxGeometry>
        </mxCell>
        <mxCell id="Jg7pOeSKla7BClUJi_HH-89" value="HoaDon" style="rounded=1;arcSize=10;whiteSpace=wrap;html=1;align=center;" vertex="1" parent="1">
          <mxGeometry x="30" y="-30" width="100" height="40" as="geometry" />
        </mxCell>
        <mxCell id="Jg7pOeSKla7BClUJi_HH-92" style="edgeStyle=none;rounded=0;orthogonalLoop=1;jettySize=auto;html=1;exitX=0.5;exitY=1;exitDx=0;exitDy=0;entryX=0.25;entryY=0;entryDx=0;entryDy=0;endArrow=none;endFill=0;" edge="1" parent="1" source="Jg7pOeSKla7BClUJi_HH-90" target="Jg7pOeSKla7BClUJi_HH-89">
          <mxGeometry relative="1" as="geometry" />
        </mxCell>
        <mxCell id="Jg7pOeSKla7BClUJi_HH-90" value="HoaDonId" style="ellipse;whiteSpace=wrap;html=1;align=center;fontStyle=4;" vertex="1" parent="1">
          <mxGeometry x="-70" y="-120" width="100" height="40" as="geometry" />
        </mxCell>
        <mxCell id="Jg7pOeSKla7BClUJi_HH-93" style="edgeStyle=none;rounded=0;orthogonalLoop=1;jettySize=auto;html=1;exitX=0.5;exitY=1;exitDx=0;exitDy=0;entryX=0.5;entryY=0;entryDx=0;entryDy=0;endArrow=none;endFill=0;" edge="1" parent="1" source="Jg7pOeSKla7BClUJi_HH-91" target="Jg7pOeSKla7BClUJi_HH-89">
          <mxGeometry relative="1" as="geometry" />
        </mxCell>
        <mxCell id="Jg7pOeSKla7BClUJi_HH-91" value="ThoiGianLap" style="ellipse;whiteSpace=wrap;html=1;align=center;" vertex="1" parent="1">
          <mxGeometry x="65" y="-120" width="100" height="40" as="geometry" />
        </mxCell>
        <mxCell id="Jg7pOeSKla7BClUJi_HH-103" style="edgeStyle=none;rounded=0;orthogonalLoop=1;jettySize=auto;html=1;exitX=0;exitY=0.5;exitDx=0;exitDy=0;entryX=1;entryY=0.5;entryDx=0;entryDy=0;endArrow=none;endFill=0;" edge="1" parent="1" source="Jg7pOeSKla7BClUJi_HH-94" target="Jg7pOeSKla7BClUJi_HH-101">
          <mxGeometry relative="1" as="geometry" />
        </mxCell>
        <mxCell id="Jg7pOeSKla7BClUJi_HH-104" value="1,N" style="edgeLabel;html=1;align=center;verticalAlign=middle;resizable=0;points=[];" vertex="1" connectable="0" parent="Jg7pOeSKla7BClUJi_HH-103">
          <mxGeometry x="-0.6563" relative="1" as="geometry">
            <mxPoint x="-1.39" y="-11.7" as="offset" />
          </mxGeometry>
        </mxCell>
        <mxCell id="Jg7pOeSKla7BClUJi_HH-108" style="edgeStyle=none;rounded=0;orthogonalLoop=1;jettySize=auto;html=1;exitX=0.5;exitY=1;exitDx=0;exitDy=0;entryX=0.5;entryY=0;entryDx=0;entryDy=0;endArrow=none;endFill=0;" edge="1" parent="1" source="Jg7pOeSKla7BClUJi_HH-94" target="Jg7pOeSKla7BClUJi_HH-107">
          <mxGeometry relative="1" as="geometry" />
        </mxCell>
        <mxCell id="Jg7pOeSKla7BClUJi_HH-110" value="N" style="edgeLabel;html=1;align=center;verticalAlign=middle;resizable=0;points=[];" vertex="1" connectable="0" parent="Jg7pOeSKla7BClUJi_HH-108">
          <mxGeometry x="-0.5" y="1" relative="1" as="geometry">
            <mxPoint x="8" y="-10" as="offset" />
          </mxGeometry>
        </mxCell>
        <mxCell id="Jg7pOeSKla7BClUJi_HH-94" value="ChiTietHoaDon" style="rounded=1;arcSize=10;whiteSpace=wrap;html=1;align=center;" vertex="1" parent="1">
          <mxGeometry x="405" y="-30" width="100" height="40" as="geometry" />
        </mxCell>
        <mxCell id="Jg7pOeSKla7BClUJi_HH-98" style="edgeStyle=none;rounded=0;orthogonalLoop=1;jettySize=auto;html=1;exitX=0.5;exitY=1;exitDx=0;exitDy=0;entryX=0.25;entryY=0;entryDx=0;entryDy=0;endArrow=none;endFill=0;" edge="1" parent="1" source="Jg7pOeSKla7BClUJi_HH-95" target="Jg7pOeSKla7BClUJi_HH-94">
          <mxGeometry relative="1" as="geometry" />
        </mxCell>
        <mxCell id="Jg7pOeSKla7BClUJi_HH-95" value="ChiTietHoaDonId" style="ellipse;whiteSpace=wrap;html=1;align=center;fontStyle=4;" vertex="1" parent="1">
          <mxGeometry x="340" y="-130" width="100" height="40" as="geometry" />
        </mxCell>
        <mxCell id="Jg7pOeSKla7BClUJi_HH-99" style="edgeStyle=none;rounded=0;orthogonalLoop=1;jettySize=auto;html=1;exitX=0.5;exitY=1;exitDx=0;exitDy=0;entryX=0.5;entryY=0;entryDx=0;entryDy=0;endArrow=none;endFill=0;" edge="1" parent="1" source="Jg7pOeSKla7BClUJi_HH-96" target="Jg7pOeSKla7BClUJi_HH-94">
          <mxGeometry relative="1" as="geometry" />
        </mxCell>
        <mxCell id="Jg7pOeSKla7BClUJi_HH-96" value="SoLuong" style="ellipse;whiteSpace=wrap;html=1;align=center;" vertex="1" parent="1">
          <mxGeometry x="460" y="-130" width="100" height="40" as="geometry" />
        </mxCell>
        <mxCell id="Jg7pOeSKla7BClUJi_HH-100" style="edgeStyle=none;rounded=0;orthogonalLoop=1;jettySize=auto;html=1;exitX=0;exitY=1;exitDx=0;exitDy=0;entryX=0.75;entryY=0;entryDx=0;entryDy=0;endArrow=none;endFill=0;" edge="1" parent="1" source="Jg7pOeSKla7BClUJi_HH-97" target="Jg7pOeSKla7BClUJi_HH-94">
          <mxGeometry relative="1" as="geometry" />
        </mxCell>
        <mxCell id="Jg7pOeSKla7BClUJi_HH-97" value="GiaBan" style="ellipse;whiteSpace=wrap;html=1;align=center;" vertex="1" parent="1">
          <mxGeometry x="530" y="-80" width="100" height="40" as="geometry" />
        </mxCell>
        <mxCell id="Jg7pOeSKla7BClUJi_HH-101" value="Chứa" style="shape=rhombus;perimeter=rhombusPerimeter;whiteSpace=wrap;html=1;align=center;" vertex="1" parent="1">
          <mxGeometry x="205" y="-30" width="120" height="60" as="geometry" />
        </mxCell>
        <mxCell id="Jg7pOeSKla7BClUJi_HH-109" style="edgeStyle=none;rounded=0;orthogonalLoop=1;jettySize=auto;html=1;exitX=0.5;exitY=1;exitDx=0;exitDy=0;entryX=0.5;entryY=0;entryDx=0;entryDy=0;endArrow=none;endFill=0;" edge="1" parent="1" source="Jg7pOeSKla7BClUJi_HH-107" target="Jg7pOeSKla7BClUJi_HH-1">
          <mxGeometry relative="1" as="geometry" />
        </mxCell>
        <mxCell id="Jg7pOeSKla7BClUJi_HH-111" value="1" style="edgeLabel;html=1;align=center;verticalAlign=middle;resizable=0;points=[];" vertex="1" connectable="0" parent="Jg7pOeSKla7BClUJi_HH-109">
          <mxGeometry x="0.6907" relative="1" as="geometry">
            <mxPoint x="-6.34" y="0.94" as="offset" />
          </mxGeometry>
        </mxCell>
        <mxCell id="Jg7pOeSKla7BClUJi_HH-107" value="Thuộc" style="shape=rhombus;perimeter=rhombusPerimeter;whiteSpace=wrap;html=1;align=center;" vertex="1" parent="1">
          <mxGeometry x="395" y="90" width="120" height="60" as="geometry" />
        </mxCell>
        <mxCell id="Jg7pOeSKla7BClUJi_HH-131" style="edgeStyle=none;rounded=0;orthogonalLoop=1;jettySize=auto;html=1;exitX=1;exitY=0.5;exitDx=0;exitDy=0;entryX=0;entryY=0;entryDx=0;entryDy=0;endArrow=none;endFill=0;" edge="1" parent="1" source="Jg7pOeSKla7BClUJi_HH-114" target="Jg7pOeSKla7BClUJi_HH-130">
          <mxGeometry relative="1" as="geometry" />
        </mxCell>
        <mxCell id="Jg7pOeSKla7BClUJi_HH-134" value="1" style="edgeLabel;html=1;align=center;verticalAlign=middle;resizable=0;points=[];" vertex="1" connectable="0" parent="Jg7pOeSKla7BClUJi_HH-131">
          <mxGeometry x="-0.5026" relative="1" as="geometry">
            <mxPoint as="offset" />
          </mxGeometry>
        </mxCell>
        <mxCell id="Jg7pOeSKla7BClUJi_HH-144" style="edgeStyle=none;rounded=0;orthogonalLoop=1;jettySize=auto;html=1;exitX=0.25;exitY=1;exitDx=0;exitDy=0;entryX=0;entryY=1;entryDx=0;entryDy=0;endArrow=none;endFill=0;" edge="1" parent="1" source="Jg7pOeSKla7BClUJi_HH-114" target="Jg7pOeSKla7BClUJi_HH-142">
          <mxGeometry relative="1" as="geometry" />
        </mxCell>
        <mxCell id="Jg7pOeSKla7BClUJi_HH-151" value="1" style="edgeLabel;html=1;align=center;verticalAlign=middle;resizable=0;points=[];" vertex="1" connectable="0" parent="Jg7pOeSKla7BClUJi_HH-144">
          <mxGeometry x="-0.6695" y="-1" relative="1" as="geometry">
            <mxPoint as="offset" />
          </mxGeometry>
        </mxCell>
        <mxCell id="Jg7pOeSKla7BClUJi_HH-161" style="edgeStyle=none;rounded=0;orthogonalLoop=1;jettySize=auto;html=1;exitX=0.75;exitY=0;exitDx=0;exitDy=0;entryX=0;entryY=0.5;entryDx=0;entryDy=0;endArrow=none;endFill=0;" edge="1" parent="1" source="Jg7pOeSKla7BClUJi_HH-114" target="Jg7pOeSKla7BClUJi_HH-160">
          <mxGeometry relative="1" as="geometry" />
        </mxCell>
        <mxCell id="Jg7pOeSKla7BClUJi_HH-163" value="1,N" style="edgeLabel;html=1;align=center;verticalAlign=middle;resizable=0;points=[];" vertex="1" connectable="0" parent="Jg7pOeSKla7BClUJi_HH-161">
          <mxGeometry x="0.096" y="1" relative="1" as="geometry">
            <mxPoint as="offset" />
          </mxGeometry>
        </mxCell>
        <mxCell id="Jg7pOeSKla7BClUJi_HH-114" value="NhanVienBanThuoc" style="rounded=1;arcSize=10;whiteSpace=wrap;html=1;align=center;" vertex="1" parent="1">
          <mxGeometry x="-480" y="-170" width="140" height="40" as="geometry" />
        </mxCell>
        <mxCell id="Jg7pOeSKla7BClUJi_HH-115" style="edgeStyle=none;rounded=0;orthogonalLoop=1;jettySize=auto;html=1;exitX=1;exitY=1;exitDx=0;exitDy=0;entryX=0;entryY=0;entryDx=0;entryDy=0;endArrow=none;endFill=0;" edge="1" source="Jg7pOeSKla7BClUJi_HH-116" target="Jg7pOeSKla7BClUJi_HH-114" parent="1">
          <mxGeometry relative="1" as="geometry" />
        </mxCell>
        <mxCell id="Jg7pOeSKla7BClUJi_HH-116" value="NhanVienBanHangId" style="ellipse;whiteSpace=wrap;html=1;align=center;fontStyle=4;" vertex="1" parent="1">
          <mxGeometry x="-640" y="-310" width="140" height="40" as="geometry" />
        </mxCell>
        <mxCell id="Jg7pOeSKla7BClUJi_HH-117" style="edgeStyle=none;rounded=0;orthogonalLoop=1;jettySize=auto;html=1;exitX=1;exitY=0.5;exitDx=0;exitDy=0;entryX=0;entryY=0.25;entryDx=0;entryDy=0;endArrow=none;endFill=0;" edge="1" source="Jg7pOeSKla7BClUJi_HH-118" target="Jg7pOeSKla7BClUJi_HH-114" parent="1">
          <mxGeometry relative="1" as="geometry" />
        </mxCell>
        <mxCell id="Jg7pOeSKla7BClUJi_HH-118" value="HoTenDem" style="ellipse;whiteSpace=wrap;html=1;align=center;" vertex="1" parent="1">
          <mxGeometry x="-650" y="-240" width="100" height="40" as="geometry" />
        </mxCell>
        <mxCell id="Jg7pOeSKla7BClUJi_HH-119" style="edgeStyle=none;rounded=0;orthogonalLoop=1;jettySize=auto;html=1;exitX=1;exitY=0.5;exitDx=0;exitDy=0;entryX=0;entryY=0.5;entryDx=0;entryDy=0;endArrow=none;endFill=0;" edge="1" source="Jg7pOeSKla7BClUJi_HH-120" target="Jg7pOeSKla7BClUJi_HH-114" parent="1">
          <mxGeometry relative="1" as="geometry" />
        </mxCell>
        <mxCell id="Jg7pOeSKla7BClUJi_HH-120" value="Ten" style="ellipse;whiteSpace=wrap;html=1;align=center;" vertex="1" parent="1">
          <mxGeometry x="-670" y="-180" width="100" height="40" as="geometry" />
        </mxCell>
        <mxCell id="Jg7pOeSKla7BClUJi_HH-121" style="edgeStyle=none;rounded=0;orthogonalLoop=1;jettySize=auto;html=1;exitX=1;exitY=0.5;exitDx=0;exitDy=0;entryX=0;entryY=0.75;entryDx=0;entryDy=0;endArrow=none;endFill=0;" edge="1" source="Jg7pOeSKla7BClUJi_HH-122" target="Jg7pOeSKla7BClUJi_HH-114" parent="1">
          <mxGeometry relative="1" as="geometry" />
        </mxCell>
        <mxCell id="Jg7pOeSKla7BClUJi_HH-122" value="SoDienThoai" style="ellipse;whiteSpace=wrap;html=1;align=center;" vertex="1" parent="1">
          <mxGeometry x="-670" y="-120" width="100" height="40" as="geometry" />
        </mxCell>
        <mxCell id="Jg7pOeSKla7BClUJi_HH-123" style="edgeStyle=none;rounded=0;orthogonalLoop=1;jettySize=auto;html=1;exitX=1;exitY=0;exitDx=0;exitDy=0;entryX=0;entryY=1;entryDx=0;entryDy=0;endArrow=none;endFill=0;" edge="1" source="Jg7pOeSKla7BClUJi_HH-128" target="Jg7pOeSKla7BClUJi_HH-114" parent="1">
          <mxGeometry relative="1" as="geometry" />
        </mxCell>
        <mxCell id="Jg7pOeSKla7BClUJi_HH-124" style="edgeStyle=none;rounded=0;orthogonalLoop=1;jettySize=auto;html=1;exitX=0.5;exitY=1;exitDx=0;exitDy=0;entryX=0.5;entryY=0;entryDx=0;entryDy=0;endArrow=none;endFill=0;" edge="1" source="Jg7pOeSKla7BClUJi_HH-125" target="Jg7pOeSKla7BClUJi_HH-114" parent="1">
          <mxGeometry relative="1" as="geometry" />
        </mxCell>
        <mxCell id="Jg7pOeSKla7BClUJi_HH-125" value="NgaySinh" style="ellipse;whiteSpace=wrap;html=1;align=center;" vertex="1" parent="1">
          <mxGeometry x="-370" y="-330" width="100" height="40" as="geometry" />
        </mxCell>
        <mxCell id="Jg7pOeSKla7BClUJi_HH-126" style="edgeStyle=none;rounded=0;orthogonalLoop=1;jettySize=auto;html=1;exitX=0.5;exitY=1;exitDx=0;exitDy=0;entryX=0.25;entryY=0;entryDx=0;entryDy=0;endArrow=none;endFill=0;" edge="1" source="Jg7pOeSKla7BClUJi_HH-127" target="Jg7pOeSKla7BClUJi_HH-114" parent="1">
          <mxGeometry relative="1" as="geometry" />
        </mxCell>
        <mxCell id="Jg7pOeSKla7BClUJi_HH-127" value="SoCMND" style="ellipse;whiteSpace=wrap;html=1;align=center;" vertex="1" parent="1">
          <mxGeometry x="-480" y="-330" width="100" height="40" as="geometry" />
        </mxCell>
        <mxCell id="Jg7pOeSKla7BClUJi_HH-128" value="GioiTinh" style="ellipse;whiteSpace=wrap;html=1;align=center;" vertex="1" parent="1">
          <mxGeometry x="-650" y="-60" width="100" height="40" as="geometry" />
        </mxCell>
        <mxCell id="Jg7pOeSKla7BClUJi_HH-130" value="Quản Lý" style="shape=rhombus;perimeter=rhombusPerimeter;whiteSpace=wrap;html=1;align=center;" vertex="1" parent="1">
          <mxGeometry x="-270" y="-130" width="120" height="60" as="geometry" />
        </mxCell>
        <mxCell id="Jg7pOeSKla7BClUJi_HH-138" style="edgeStyle=none;rounded=0;orthogonalLoop=1;jettySize=auto;html=1;exitX=1;exitY=0;exitDx=0;exitDy=0;entryX=0.5;entryY=1;entryDx=0;entryDy=0;endArrow=none;endFill=0;" edge="1" parent="1" source="Jg7pOeSKla7BClUJi_HH-136" target="Jg7pOeSKla7BClUJi_HH-89">
          <mxGeometry relative="1" as="geometry" />
        </mxCell>
        <mxCell id="Jg7pOeSKla7BClUJi_HH-139" value="N" style="edgeLabel;html=1;align=center;verticalAlign=middle;resizable=0;points=[];" vertex="1" connectable="0" parent="Jg7pOeSKla7BClUJi_HH-138">
          <mxGeometry x="0.6925" y="3" relative="1" as="geometry">
            <mxPoint as="offset" />
          </mxGeometry>
        </mxCell>
        <mxCell id="Jg7pOeSKla7BClUJi_HH-136" value="Mua" style="shape=rhombus;perimeter=rhombusPerimeter;whiteSpace=wrap;html=1;align=center;" vertex="1" parent="1">
          <mxGeometry x="-130" y="140" width="120" height="60" as="geometry" />
        </mxCell>
        <mxCell id="Jg7pOeSKla7BClUJi_HH-145" style="edgeStyle=none;rounded=0;orthogonalLoop=1;jettySize=auto;html=1;exitX=1;exitY=0;exitDx=0;exitDy=0;entryX=0;entryY=0.5;entryDx=0;entryDy=0;endArrow=none;endFill=0;" edge="1" parent="1" source="Jg7pOeSKla7BClUJi_HH-142" target="Jg7pOeSKla7BClUJi_HH-143">
          <mxGeometry relative="1" as="geometry" />
        </mxCell>
        <mxCell id="Jg7pOeSKla7BClUJi_HH-150" value="1" style="edgeLabel;html=1;align=center;verticalAlign=middle;resizable=0;points=[];" vertex="1" connectable="0" parent="Jg7pOeSKla7BClUJi_HH-145">
          <mxGeometry x="0.5828" y="1" relative="1" as="geometry">
            <mxPoint as="offset" />
          </mxGeometry>
        </mxCell>
        <mxCell id="Jg7pOeSKla7BClUJi_HH-142" value="Sở Hữu" style="shape=rhombus;perimeter=rhombusPerimeter;whiteSpace=wrap;html=1;align=center;" vertex="1" parent="1">
          <mxGeometry x="-650" y="20" width="120" height="60" as="geometry" />
        </mxCell>
        <mxCell id="Jg7pOeSKla7BClUJi_HH-143" value="TaiKhoan" style="shape=ext;margin=3;double=1;whiteSpace=wrap;html=1;align=center;" vertex="1" parent="1">
          <mxGeometry x="-880" y="70" width="100" height="40" as="geometry" />
        </mxCell>
        <mxCell id="Jg7pOeSKla7BClUJi_HH-148" style="edgeStyle=none;rounded=0;orthogonalLoop=1;jettySize=auto;html=1;exitX=0.5;exitY=1;exitDx=0;exitDy=0;entryX=0.5;entryY=0;entryDx=0;entryDy=0;endArrow=none;endFill=0;" edge="1" parent="1" source="Jg7pOeSKla7BClUJi_HH-146" target="Jg7pOeSKla7BClUJi_HH-143">
          <mxGeometry relative="1" as="geometry" />
        </mxCell>
        <mxCell id="Jg7pOeSKla7BClUJi_HH-146" value="TenTaiKhoan" style="ellipse;whiteSpace=wrap;html=1;align=center;fontStyle=4;" vertex="1" parent="1">
          <mxGeometry x="-960" y="-20" width="100" height="40" as="geometry" />
        </mxCell>
        <mxCell id="Jg7pOeSKla7BClUJi_HH-149" style="edgeStyle=none;rounded=0;orthogonalLoop=1;jettySize=auto;html=1;exitX=0.5;exitY=1;exitDx=0;exitDy=0;entryX=0.5;entryY=0;entryDx=0;entryDy=0;endArrow=none;endFill=0;" edge="1" parent="1" source="Jg7pOeSKla7BClUJi_HH-147" target="Jg7pOeSKla7BClUJi_HH-143">
          <mxGeometry relative="1" as="geometry" />
        </mxCell>
        <mxCell id="Jg7pOeSKla7BClUJi_HH-147" value="MatKhau" style="ellipse;whiteSpace=wrap;html=1;align=center;" vertex="1" parent="1">
          <mxGeometry x="-840" y="-20" width="100" height="40" as="geometry" />
        </mxCell>
        <mxCell id="Jg7pOeSKla7BClUJi_HH-152" value="LoaiKhachHang" style="ellipse;whiteSpace=wrap;html=1;align=center;" vertex="1" parent="1">
          <mxGeometry x="-510" y="410" width="100" height="40" as="geometry" />
        </mxCell>
        <mxCell id="Jg7pOeSKla7BClUJi_HH-157" style="edgeStyle=none;rounded=0;orthogonalLoop=1;jettySize=auto;html=1;exitX=1;exitY=0.5;exitDx=0;exitDy=0;entryX=0;entryY=0.5;entryDx=0;entryDy=0;endArrow=none;endFill=0;" edge="1" parent="1" source="Jg7pOeSKla7BClUJi_HH-154" target="Jg7pOeSKla7BClUJi_HH-152">
          <mxGeometry relative="1" as="geometry" />
        </mxCell>
        <mxCell id="Jg7pOeSKla7BClUJi_HH-154" value="MEMBER" style="ellipse;whiteSpace=wrap;html=1;align=center;" vertex="1" parent="1">
          <mxGeometry x="-680" y="380" width="100" height="40" as="geometry" />
        </mxCell>
        <mxCell id="Jg7pOeSKla7BClUJi_HH-158" style="edgeStyle=none;rounded=0;orthogonalLoop=1;jettySize=auto;html=1;exitX=1;exitY=0.5;exitDx=0;exitDy=0;endArrow=none;endFill=0;" edge="1" parent="1" source="Jg7pOeSKla7BClUJi_HH-155">
          <mxGeometry relative="1" as="geometry">
            <mxPoint x="-510" y="430" as="targetPoint" />
          </mxGeometry>
        </mxCell>
        <mxCell id="Jg7pOeSKla7BClUJi_HH-155" value="VIP" style="ellipse;whiteSpace=wrap;html=1;align=center;" vertex="1" parent="1">
          <mxGeometry x="-680" y="430" width="100" height="40" as="geometry" />
        </mxCell>
        <mxCell id="Jg7pOeSKla7BClUJi_HH-159" style="edgeStyle=none;rounded=0;orthogonalLoop=1;jettySize=auto;html=1;exitX=1;exitY=0.5;exitDx=0;exitDy=0;endArrow=none;endFill=0;" edge="1" parent="1" source="Jg7pOeSKla7BClUJi_HH-156">
          <mxGeometry relative="1" as="geometry">
            <mxPoint x="-510" y="430" as="targetPoint" />
          </mxGeometry>
        </mxCell>
        <mxCell id="Jg7pOeSKla7BClUJi_HH-156" value="&amp;nbsp;SUPER VIP" style="ellipse;whiteSpace=wrap;html=1;align=center;" vertex="1" parent="1">
          <mxGeometry x="-680" y="480" width="100" height="40" as="geometry" />
        </mxCell>
        <mxCell id="Jg7pOeSKla7BClUJi_HH-162" style="edgeStyle=none;rounded=0;orthogonalLoop=1;jettySize=auto;html=1;exitX=0.5;exitY=1;exitDx=0;exitDy=0;entryX=1;entryY=0.25;entryDx=0;entryDy=0;endArrow=none;endFill=0;" edge="1" parent="1" source="Jg7pOeSKla7BClUJi_HH-160" target="Jg7pOeSKla7BClUJi_HH-114">
          <mxGeometry relative="1" as="geometry" />
        </mxCell>
        <mxCell id="Jg7pOeSKla7BClUJi_HH-164" value="1,N" style="edgeLabel;html=1;align=center;verticalAlign=middle;resizable=0;points=[];" vertex="1" connectable="0" parent="Jg7pOeSKla7BClUJi_HH-162">
          <mxGeometry x="0.115" y="-1" relative="1" as="geometry">
            <mxPoint as="offset" />
          </mxGeometry>
        </mxCell>
        <mxCell id="Jg7pOeSKla7BClUJi_HH-160" value="QuanLy" style="shape=rhombus;perimeter=rhombusPerimeter;whiteSpace=wrap;html=1;align=center;" vertex="1" parent="1">
          <mxGeometry x="-240" y="-270" width="120" height="60" as="geometry" />
        </mxCell>
        <mxCell id="Jg7pOeSKla7BClUJi_HH-188" style="edgeStyle=none;rounded=0;orthogonalLoop=1;jettySize=auto;html=1;exitX=1;exitY=0.5;exitDx=0;exitDy=0;entryX=0;entryY=0.5;entryDx=0;entryDy=0;endArrow=none;endFill=0;" edge="1" parent="1" source="Jg7pOeSKla7BClUJi_HH-165" target="Jg7pOeSKla7BClUJi_HH-187">
          <mxGeometry relative="1" as="geometry" />
        </mxCell>
        <mxCell id="Jg7pOeSKla7BClUJi_HH-190" value="1" style="edgeLabel;html=1;align=center;verticalAlign=middle;resizable=0;points=[];" vertex="1" connectable="0" parent="Jg7pOeSKla7BClUJi_HH-188">
          <mxGeometry x="-0.7163" y="4" relative="1" as="geometry">
            <mxPoint as="offset" />
          </mxGeometry>
        </mxCell>
        <mxCell id="Jg7pOeSKla7BClUJi_HH-165" value="PhieuNhapHang" style="rounded=1;arcSize=10;whiteSpace=wrap;html=1;align=center;" vertex="1" parent="1">
          <mxGeometry x="170" y="-320" width="100" height="40" as="geometry" />
        </mxCell>
        <mxCell id="Jg7pOeSKla7BClUJi_HH-168" style="edgeStyle=none;rounded=0;orthogonalLoop=1;jettySize=auto;html=1;exitX=0.5;exitY=1;exitDx=0;exitDy=0;entryX=0.5;entryY=0;entryDx=0;entryDy=0;endArrow=none;endFill=0;" edge="1" parent="1" source="Jg7pOeSKla7BClUJi_HH-166" target="Jg7pOeSKla7BClUJi_HH-165">
          <mxGeometry relative="1" as="geometry" />
        </mxCell>
        <mxCell id="Jg7pOeSKla7BClUJi_HH-166" value="PhieuNhapHangId" style="ellipse;whiteSpace=wrap;html=1;align=center;fontStyle=4;" vertex="1" parent="1">
          <mxGeometry x="125" y="-420" width="100" height="40" as="geometry" />
        </mxCell>
        <mxCell id="Jg7pOeSKla7BClUJi_HH-169" style="edgeStyle=none;rounded=0;orthogonalLoop=1;jettySize=auto;html=1;exitX=0.5;exitY=1;exitDx=0;exitDy=0;endArrow=none;endFill=0;" edge="1" parent="1" source="Jg7pOeSKla7BClUJi_HH-167">
          <mxGeometry relative="1" as="geometry">
            <mxPoint x="220" y="-320" as="targetPoint" />
          </mxGeometry>
        </mxCell>
        <mxCell id="Jg7pOeSKla7BClUJi_HH-167" value="ThoiGianLap" style="ellipse;whiteSpace=wrap;html=1;align=center;" vertex="1" parent="1">
          <mxGeometry x="275" y="-420" width="100" height="40" as="geometry" />
        </mxCell>
        <mxCell id="Jg7pOeSKla7BClUJi_HH-196" style="edgeStyle=none;rounded=0;orthogonalLoop=1;jettySize=auto;html=1;exitX=1;exitY=0.75;exitDx=0;exitDy=0;entryX=0;entryY=0;entryDx=0;entryDy=0;endArrow=none;endFill=0;" edge="1" parent="1" source="Jg7pOeSKla7BClUJi_HH-170" target="Jg7pOeSKla7BClUJi_HH-193">
          <mxGeometry relative="1" as="geometry" />
        </mxCell>
        <mxCell id="Jg7pOeSKla7BClUJi_HH-197" value="0,1" style="edgeLabel;html=1;align=center;verticalAlign=middle;resizable=0;points=[];" vertex="1" connectable="0" parent="Jg7pOeSKla7BClUJi_HH-196">
          <mxGeometry x="-0.6287" y="3" relative="1" as="geometry">
            <mxPoint as="offset" />
          </mxGeometry>
        </mxCell>
        <mxCell id="Jg7pOeSKla7BClUJi_HH-170" value="PhieuHuyHang" style="rounded=1;arcSize=10;whiteSpace=wrap;html=1;align=center;" vertex="1" parent="1">
          <mxGeometry x="470" y="-350" width="100" height="40" as="geometry" />
        </mxCell>
        <mxCell id="Jg7pOeSKla7BClUJi_HH-173" style="edgeStyle=none;rounded=0;orthogonalLoop=1;jettySize=auto;html=1;exitX=0.5;exitY=1;exitDx=0;exitDy=0;entryX=0.5;entryY=0;entryDx=0;entryDy=0;endArrow=none;endFill=0;" edge="1" parent="1" source="Jg7pOeSKla7BClUJi_HH-171" target="Jg7pOeSKla7BClUJi_HH-170">
          <mxGeometry relative="1" as="geometry" />
        </mxCell>
        <mxCell id="Jg7pOeSKla7BClUJi_HH-171" value="PhieuHuyHangId" style="ellipse;whiteSpace=wrap;html=1;align=center;fontStyle=4;" vertex="1" parent="1">
          <mxGeometry x="440" y="-440" width="100" height="40" as="geometry" />
        </mxCell>
        <mxCell id="Jg7pOeSKla7BClUJi_HH-174" style="edgeStyle=none;rounded=0;orthogonalLoop=1;jettySize=auto;html=1;exitX=0.5;exitY=1;exitDx=0;exitDy=0;endArrow=none;endFill=0;" edge="1" parent="1" source="Jg7pOeSKla7BClUJi_HH-172">
          <mxGeometry relative="1" as="geometry">
            <mxPoint x="520" y="-350" as="targetPoint" />
          </mxGeometry>
        </mxCell>
        <mxCell id="Jg7pOeSKla7BClUJi_HH-172" value="ThoiGianLap" style="ellipse;whiteSpace=wrap;html=1;align=center;" vertex="1" parent="1">
          <mxGeometry x="560" y="-440" width="100" height="40" as="geometry" />
        </mxCell>
        <mxCell id="Jg7pOeSKla7BClUJi_HH-183" style="edgeStyle=none;rounded=0;orthogonalLoop=1;jettySize=auto;html=1;exitX=0;exitY=1;exitDx=0;exitDy=0;entryX=1;entryY=0;entryDx=0;entryDy=0;endArrow=none;endFill=0;" edge="1" parent="1" source="Jg7pOeSKla7BClUJi_HH-175" target="Jg7pOeSKla7BClUJi_HH-182">
          <mxGeometry relative="1" as="geometry" />
        </mxCell>
        <mxCell id="Jg7pOeSKla7BClUJi_HH-185" value="N" style="edgeLabel;html=1;align=center;verticalAlign=middle;resizable=0;points=[];" vertex="1" connectable="0" parent="Jg7pOeSKla7BClUJi_HH-183">
          <mxGeometry x="-0.7738" y="3" relative="1" as="geometry">
            <mxPoint as="offset" />
          </mxGeometry>
        </mxCell>
        <mxCell id="Jg7pOeSKla7BClUJi_HH-189" style="edgeStyle=none;rounded=0;orthogonalLoop=1;jettySize=auto;html=1;exitX=0;exitY=0.25;exitDx=0;exitDy=0;endArrow=none;endFill=0;" edge="1" parent="1" source="Jg7pOeSKla7BClUJi_HH-175" target="Jg7pOeSKla7BClUJi_HH-187">
          <mxGeometry relative="1" as="geometry" />
        </mxCell>
        <mxCell id="Jg7pOeSKla7BClUJi_HH-191" value="1,N" style="edgeLabel;html=1;align=center;verticalAlign=middle;resizable=0;points=[];" vertex="1" connectable="0" parent="Jg7pOeSKla7BClUJi_HH-189">
          <mxGeometry x="-0.6575" relative="1" as="geometry">
            <mxPoint as="offset" />
          </mxGeometry>
        </mxCell>
        <mxCell id="Jg7pOeSKla7BClUJi_HH-175" value="LoThuoc" style="rounded=1;arcSize=10;whiteSpace=wrap;html=1;align=center;" vertex="1" parent="1">
          <mxGeometry x="820" y="-60" width="100" height="40" as="geometry" />
        </mxCell>
        <mxCell id="Jg7pOeSKla7BClUJi_HH-179" style="edgeStyle=none;rounded=0;orthogonalLoop=1;jettySize=auto;html=1;exitX=0.5;exitY=1;exitDx=0;exitDy=0;entryX=0.5;entryY=0;entryDx=0;entryDy=0;endArrow=none;endFill=0;" edge="1" parent="1" source="Jg7pOeSKla7BClUJi_HH-176" target="Jg7pOeSKla7BClUJi_HH-175">
          <mxGeometry relative="1" as="geometry" />
        </mxCell>
        <mxCell id="Jg7pOeSKla7BClUJi_HH-176" value="LoThuocId" style="ellipse;whiteSpace=wrap;html=1;align=center;fontStyle=4;" vertex="1" parent="1">
          <mxGeometry x="900" y="-170" width="100" height="40" as="geometry" />
        </mxCell>
        <mxCell id="Jg7pOeSKla7BClUJi_HH-180" style="edgeStyle=none;rounded=0;orthogonalLoop=1;jettySize=auto;html=1;exitX=0.5;exitY=1;exitDx=0;exitDy=0;endArrow=none;endFill=0;" edge="1" parent="1" source="Jg7pOeSKla7BClUJi_HH-177">
          <mxGeometry relative="1" as="geometry">
            <mxPoint x="870" y="-60" as="targetPoint" />
          </mxGeometry>
        </mxCell>
        <mxCell id="Jg7pOeSKla7BClUJi_HH-177" value="NgaySanXuat" style="ellipse;whiteSpace=wrap;html=1;align=center;" vertex="1" parent="1">
          <mxGeometry x="970" y="-110" width="100" height="40" as="geometry" />
        </mxCell>
        <mxCell id="Jg7pOeSKla7BClUJi_HH-181" style="edgeStyle=none;rounded=0;orthogonalLoop=1;jettySize=auto;html=1;exitX=0.5;exitY=1;exitDx=0;exitDy=0;entryX=0.5;entryY=0;entryDx=0;entryDy=0;endArrow=none;endFill=0;" edge="1" parent="1" source="Jg7pOeSKla7BClUJi_HH-178" target="Jg7pOeSKla7BClUJi_HH-175">
          <mxGeometry relative="1" as="geometry" />
        </mxCell>
        <mxCell id="Jg7pOeSKla7BClUJi_HH-178" value="SoLuong" style="ellipse;whiteSpace=wrap;html=1;align=center;" vertex="1" parent="1">
          <mxGeometry x="990" y="-40" width="100" height="40" as="geometry" />
        </mxCell>
        <mxCell id="Jg7pOeSKla7BClUJi_HH-184" style="edgeStyle=none;rounded=0;orthogonalLoop=1;jettySize=auto;html=1;exitX=0;exitY=1;exitDx=0;exitDy=0;entryX=0.75;entryY=0;entryDx=0;entryDy=0;endArrow=none;endFill=0;" edge="1" parent="1" source="Jg7pOeSKla7BClUJi_HH-182" target="Jg7pOeSKla7BClUJi_HH-1">
          <mxGeometry relative="1" as="geometry" />
        </mxCell>
        <mxCell id="Jg7pOeSKla7BClUJi_HH-186" value="1" style="edgeLabel;html=1;align=center;verticalAlign=middle;resizable=0;points=[];" vertex="1" connectable="0" parent="Jg7pOeSKla7BClUJi_HH-184">
          <mxGeometry x="0.8628" y="3" relative="1" as="geometry">
            <mxPoint as="offset" />
          </mxGeometry>
        </mxCell>
        <mxCell id="Jg7pOeSKla7BClUJi_HH-182" value="Thuộc" style="shape=rhombus;perimeter=rhombusPerimeter;whiteSpace=wrap;html=1;align=center;" vertex="1" parent="1">
          <mxGeometry x="607" y="110" width="120" height="60" as="geometry" />
        </mxCell>
        <mxCell id="Jg7pOeSKla7BClUJi_HH-187" value="Thuộc" style="shape=rhombus;perimeter=rhombusPerimeter;whiteSpace=wrap;html=1;align=center;" vertex="1" parent="1">
          <mxGeometry x="505" y="-210" width="120" height="60" as="geometry" />
        </mxCell>
        <mxCell id="Jg7pOeSKla7BClUJi_HH-194" style="edgeStyle=none;rounded=0;orthogonalLoop=1;jettySize=auto;html=1;exitX=1;exitY=1;exitDx=0;exitDy=0;entryX=0.25;entryY=0;entryDx=0;entryDy=0;endArrow=none;endFill=0;" edge="1" parent="1" source="Jg7pOeSKla7BClUJi_HH-193" target="Jg7pOeSKla7BClUJi_HH-175">
          <mxGeometry relative="1" as="geometry" />
        </mxCell>
        <mxCell id="Jg7pOeSKla7BClUJi_HH-195" value="1,N" style="edgeLabel;html=1;align=center;verticalAlign=middle;resizable=0;points=[];" vertex="1" connectable="0" parent="Jg7pOeSKla7BClUJi_HH-194">
          <mxGeometry x="0.6884" y="1" relative="1" as="geometry">
            <mxPoint as="offset" />
          </mxGeometry>
        </mxCell>
        <mxCell id="Jg7pOeSKla7BClUJi_HH-193" value="Thuộc" style="shape=rhombus;perimeter=rhombusPerimeter;whiteSpace=wrap;html=1;align=center;" vertex="1" parent="1">
          <mxGeometry x="670" y="-270" width="120" height="60" as="geometry" />
        </mxCell>
      </root>
    </mxGraphModel>
  </diagram>
</mxfile>
